<svg xmlns="http://www.w3.org/2000/svg" xmlns:xlink="http://www.w3.org/1999/xlink" width="500" zoomAndPan="magnify" viewBox="0 0 375 374.999991" height="500" preserveAspectRatio="xMidYMid meet" version="1.0"><defs><g/></defs><rect x="-37.5" width="450" fill="#ffffff" y="-37.499999" height="449.999989" fill-opacity="1"/><rect x="-37.5" width="450" fill="#e1e1e1" y="-37.499999" height="449.999989" fill-opacity="1"/><g fill="#000000" fill-opacity="1"><g transform="translate(130.179805, 266.074185)"><g><path d="M 24.84375 -55.53125 C 17.601562 -46.0625 13.984375 -35.832031 13.984375 -24.84375 C 13.984375 -11.757812 19.484375 -1.597656 30.484375 5.640625 C 36.878906 9.953125 44.148438 12.109375 52.296875 12.109375 C 60.441406 12.109375 67.503906 10.507812 73.484375 7.3125 C 84.753906 1.457031 91.085938 -8.351562 92.484375 -22.125 C 92.617188 -23.101562 92.6875 -24.078125 92.6875 -25.046875 C 92.6875 -30.203125 91.257812 -35.769531 88.40625 -41.75 C 85.550781 -47.738281 80.925781 -53.238281 74.53125 -58.25 L 36.953125 -87.890625 C 28.742188 -94.296875 24.640625 -102.578125 24.640625 -112.734375 C 24.640625 -122.890625 27.910156 -131.484375 34.453125 -138.515625 C 40.992188 -145.546875 49.828125 -149.0625 60.953125 -149.0625 C 66.523438 -149.0625 72.582031 -148.363281 79.125 -146.96875 L 87.46875 -146.96875 L 87.890625 -121.296875 L 85.796875 -121.296875 C 85.660156 -127.972656 83.257812 -133.222656 78.59375 -137.046875 C 73.9375 -140.878906 68.09375 -142.796875 61.0625 -142.796875 C 54.03125 -142.796875 48.148438 -140.460938 43.421875 -135.796875 C 38.691406 -131.140625 36.328125 -125.15625 36.328125 -117.84375 C 36.328125 -110.539062 39.390625 -104.453125 45.515625 -99.578125 L 84.125 -69.09375 C 99.4375 -56.988281 107.09375 -42.378906 107.09375 -25.265625 C 107.09375 -12.453125 102.015625 -1.457031 91.859375 7.71875 C 83.085938 15.65625 71.394531 19.625 56.78125 19.625 C 47.875 19.625 39.941406 17.953125 32.984375 14.609375 C 19.898438 8.484375 12.035156 -1.953125 9.390625 -16.703125 C 8.972656 -18.929688 8.765625 -21.75 8.765625 -25.15625 C 8.765625 -28.5625 9.738281 -33.222656 11.6875 -39.140625 C 13.632812 -45.054688 17.394531 -51.007812 22.96875 -57 Z M 24.84375 -55.53125 "/></g></g></g><g fill="#000000" fill-opacity="1"><g transform="translate(40.072702, 235.143978)"><g><path d="M 197.90625 35.484375 C 192.0625 37.015625 186.878906 37.78125 182.359375 37.78125 C 177.835938 37.78125 173.835938 37.5 170.359375 36.9375 C 166.878906 36.382812 163.15625 35.304688 159.1875 33.703125 C 155.21875 32.109375 151.492188 30.265625 148.015625 28.171875 C 144.535156 26.085938 141.054688 23.515625 137.578125 20.453125 C 131.171875 15.304688 125.359375 9.738281 120.140625 3.75 C 114.921875 -2.226562 104.863281 -13.460938 89.96875 -29.953125 C 75.082031 -46.453125 65.203125 -57.414062 60.328125 -62.84375 C 55.460938 -68.269531 51.707031 -71.117188 49.0625 -71.390625 L 49.0625 -73.484375 C 57.132812 -73.484375 62.523438 -73.65625 65.234375 -74 C 67.953125 -74.351562 70.84375 -74.984375 73.90625 -75.890625 C 76.96875 -76.796875 79.539062 -78.015625 81.625 -79.546875 C 89.832031 -84.828125 93.9375 -93.59375 93.9375 -105.84375 C 93.9375 -116 91.675781 -124.140625 87.15625 -130.265625 C 82.632812 -136.390625 76.269531 -139.523438 68.0625 -139.671875 L 42.171875 -139.671875 L 42.171875 -15.234375 C 42.171875 -11.753906 43.457031 -8.691406 46.03125 -6.046875 C 48.601562 -3.410156 51.769531 -2.09375 55.53125 -2.09375 L 58.03125 -2.09375 L 58.25 0 L 12.53125 0 L 12.53125 -2.09375 L 15.234375 -2.09375 C 18.710938 -2.09375 21.773438 -3.34375 24.421875 -5.84375 C 27.066406 -8.351562 28.457031 -11.414062 28.59375 -15.03125 L 28.59375 -130.890625 C 28.457031 -134.515625 27.101562 -137.613281 24.53125 -140.1875 C 21.957031 -142.757812 18.859375 -144.046875 15.234375 -144.046875 L 12.53125 -144.046875 L 12.53125 -146.140625 L 68.890625 -146.140625 C 81.140625 -146.140625 90.988281 -142.691406 98.4375 -135.796875 C 105.882812 -128.910156 109.609375 -119.796875 109.609375 -108.453125 C 109.609375 -97.109375 106.195312 -87.363281 99.375 -79.21875 C 92.550781 -71.082031 84.203125 -67.015625 74.328125 -67.015625 C 74.328125 -67.015625 74.253906 -67.015625 74.109375 -67.015625 C 78.835938 -62.003906 84.195312 -56.160156 90.1875 -49.484375 C 114.257812 -22.898438 129.707031 -6.195312 136.53125 0.625 C 143.351562 7.445312 149.375 13.050781 154.59375 17.4375 C 159.8125 21.820312 164.4375 25.054688 168.46875 27.140625 C 176.6875 31.585938 184.832031 33.8125 192.90625 33.8125 C 194.570312 33.8125 196.238281 33.675781 197.90625 33.40625 Z M 197.90625 35.484375 "/></g></g></g><g fill="#000000" fill-opacity="1"><g transform="translate(222.80183, 265.067)"><g><path d="M 82.578125 -90.9375 C 80.078125 -88.289062 77.226562 -86.34375 74.03125 -85.09375 C 87.65625 -83.144531 98.015625 -78.3125 105.109375 -70.59375 C 112.203125 -62.875 115.75 -53.457031 115.75 -42.34375 C 115.75 -28.851562 110.328125 -17.9375 99.484375 -9.59375 C 88.640625 -1.25 74.382812 2.921875 56.71875 2.921875 C 39.0625 2.921875 25.226562 -1.421875 15.21875 -10.109375 C 5.207031 -18.804688 0.203125 -31.078125 0.203125 -46.921875 C 0.203125 -47.753906 0.203125 -48.585938 0.203125 -49.421875 L 2.5 -49.84375 C 5.28125 -29.125 13.898438 -15.707031 28.359375 -9.59375 L 28.359375 -130.984375 C 28.078125 -134.734375 26.648438 -137.820312 24.078125 -140.25 C 21.503906 -142.6875 18.410156 -143.90625 14.796875 -143.90625 L 12.296875 -143.90625 L 12.296875 -146 L 47.34375 -146 C 60.40625 -146 70.863281 -143.007812 78.71875 -137.03125 C 86.582031 -131.050781 90.515625 -123.226562 90.515625 -113.5625 C 90.515625 -103.894531 87.867188 -96.351562 82.578125 -90.9375 Z M 41.921875 -139.3125 L 41.921875 -5.84375 C 46.503906 -5.144531 51.785156 -4.796875 57.765625 -4.796875 C 71.109375 -4.796875 81.5 -8.375 88.9375 -15.53125 C 96.382812 -22.695312 100.109375 -31.976562 100.109375 -43.375 C 100.109375 -49.5 98.957031 -54.921875 96.65625 -59.640625 C 94.363281 -64.367188 91.484375 -68.054688 88.015625 -70.703125 C 78.835938 -77.796875 65.90625 -81.34375 49.21875 -81.34375 C 49.070312 -81.34375 49 -81.34375 49 -81.34375 L 48.796875 -83.21875 C 48.929688 -83.21875 49 -83.21875 49 -83.21875 C 56.09375 -83.21875 62.175781 -85.546875 67.25 -90.203125 C 72.332031 -94.859375 74.875 -102.054688 74.875 -111.796875 C 74.875 -130.140625 64.789062 -139.3125 44.625 -139.3125 Z M 41.921875 -139.3125 "/></g></g></g><path fill="#e1e1e1" d="M 15.585938 161.511719 L 359.386719 161.511719 C 360.78125 161.511719 362.121094 162.066406 363.109375 163.054688 C 364.09375 164.039062 364.648438 165.378906 364.648438 166.773438 L 364.648438 177.296875 C 364.648438 178.691406 364.09375 180.03125 363.109375 181.015625 C 362.121094 182.003906 360.78125 182.558594 359.386719 182.558594 L 15.585938 182.558594 C 12.679688 182.558594 10.324219 180.203125 10.324219 177.296875 L 10.324219 166.773438 C 10.324219 163.867188 12.679688 161.511719 15.585938 161.511719 Z M 15.585938 161.511719 " fill-opacity="1" fill-rule="nonzero"/><g fill="#000000" fill-opacity="1"><g transform="translate(20.604586, 175.97921)"><g><path d="M 8.34375 -1.640625 L 8.75 -0.296875 C 8.570312 -0.171875 8.351562 -0.0703125 8.09375 0 C 7.84375 0.0820312 7.578125 0.125 7.296875 0.125 C 6.316406 0.125 5.546875 -0.3125 4.984375 -1.1875 L 3.625 -3.265625 C 3.476562 -3.484375 3.332031 -3.632812 3.1875 -3.71875 C 3.039062 -3.8125 2.878906 -3.859375 2.703125 -3.859375 L 2.640625 -3.859375 L 2.640625 0 L 0.96875 0 L 0.96875 -9.359375 L 3.875 -9.359375 C 5.0625 -9.359375 5.957031 -9.109375 6.5625 -8.609375 C 7.175781 -8.117188 7.484375 -7.445312 7.484375 -6.59375 C 7.484375 -6.070312 7.367188 -5.625 7.140625 -5.25 C 6.910156 -4.875 6.597656 -4.578125 6.203125 -4.359375 C 5.804688 -4.140625 5.359375 -4 4.859375 -3.9375 C 5.117188 -3.800781 5.359375 -3.566406 5.578125 -3.234375 L 6.328125 -2.140625 C 6.515625 -1.859375 6.691406 -1.660156 6.859375 -1.546875 C 7.035156 -1.441406 7.253906 -1.390625 7.515625 -1.390625 C 7.828125 -1.390625 8.101562 -1.472656 8.34375 -1.640625 Z M 3.75 -7.953125 L 2.640625 -7.953125 L 2.640625 -5.203125 L 3.671875 -5.203125 C 4.390625 -5.203125 4.921875 -5.3125 5.265625 -5.53125 C 5.609375 -5.75 5.78125 -6.101562 5.78125 -6.59375 C 5.78125 -7.5 5.101562 -7.953125 3.75 -7.953125 Z M 3.75 -7.953125 "/></g></g></g><g fill="#000000" fill-opacity="1"><g transform="translate(38.876601, 175.97921)"><g><path d="M 5.125 0.125 C 4.175781 0.125 3.363281 -0.0546875 2.6875 -0.421875 C 2.007812 -0.785156 1.488281 -1.3125 1.125 -2 C 0.769531 -2.695312 0.59375 -3.53125 0.59375 -4.5 C 0.59375 -5.476562 0.785156 -6.34375 1.171875 -7.09375 C 1.554688 -7.84375 2.101562 -8.425781 2.8125 -8.84375 C 3.519531 -9.269531 4.359375 -9.484375 5.328125 -9.484375 C 6.179688 -9.484375 6.929688 -9.289062 7.578125 -8.90625 C 8.234375 -8.519531 8.738281 -7.976562 9.09375 -7.28125 C 9.457031 -6.59375 9.640625 -5.785156 9.640625 -4.859375 C 9.640625 -3.847656 9.441406 -2.972656 9.046875 -2.234375 C 8.660156 -1.492188 8.125 -0.914062 7.4375 -0.5 C 6.757812 -0.0820312 5.988281 0.125 5.125 0.125 Z M 5.078125 -1.421875 C 5.628906 -1.421875 6.113281 -1.554688 6.53125 -1.828125 C 6.957031 -2.097656 7.289062 -2.488281 7.53125 -3 C 7.78125 -3.507812 7.90625 -4.128906 7.90625 -4.859375 C 7.90625 -5.796875 7.664062 -6.546875 7.1875 -7.109375 C 6.71875 -7.671875 6.082031 -7.953125 5.28125 -7.953125 C 4.707031 -7.953125 4.195312 -7.804688 3.75 -7.515625 C 3.3125 -7.234375 2.960938 -6.835938 2.703125 -6.328125 C 2.453125 -5.816406 2.328125 -5.21875 2.328125 -4.53125 C 2.328125 -3.539062 2.570312 -2.773438 3.0625 -2.234375 C 3.550781 -1.691406 4.222656 -1.421875 5.078125 -1.421875 Z M 5.078125 -1.421875 "/></g></g></g><g fill="#000000" fill-opacity="1"><g transform="translate(59.122325, 175.97921)"><g><path d="M 0.96875 0 L 0.96875 -9.359375 L 2.671875 -9.359375 L 2.671875 -5.484375 L 7.09375 -5.484375 L 7.09375 -9.359375 L 8.828125 -9.359375 L 8.828125 0 L 7.09375 0 L 7.09375 -3.984375 L 2.671875 -3.984375 L 2.671875 0 Z M 0.96875 0 "/></g></g></g><g fill="#000000" fill-opacity="1"><g transform="translate(78.907509, 175.97921)"><g><path d="M 0.96875 0 L 0.96875 -9.359375 L 2.671875 -9.359375 L 2.671875 0 Z M 0.96875 0 "/></g></g></g><g fill="#000000" fill-opacity="1"><g transform="translate(92.561037, 175.97921)"><g><path d="M 7.75 -9.359375 L 7.53125 -7.84375 L 4.640625 -7.84375 L 4.640625 0 L 2.921875 0 L 2.921875 -7.84375 L -0.078125 -7.84375 L -0.078125 -9.359375 Z M 7.75 -9.359375 "/></g></g></g><g fill="#000000" fill-opacity="1"><g transform="translate(110.135668, 175.97921)"><g/></g></g><g fill="#000000" fill-opacity="1"><g transform="translate(123.354988, 175.97921)"><g><path d="M 3.875 0.125 C 2.769531 0.125 1.910156 -0.117188 1.296875 -0.609375 C 0.679688 -1.109375 0.332031 -1.832031 0.25 -2.78125 L 1.859375 -3.015625 C 2.015625 -1.890625 2.710938 -1.328125 3.953125 -1.328125 C 4.484375 -1.328125 4.898438 -1.429688 5.203125 -1.640625 C 5.503906 -1.859375 5.65625 -2.164062 5.65625 -2.5625 C 5.65625 -2.90625 5.503906 -3.164062 5.203125 -3.34375 C 4.898438 -3.53125 4.421875 -3.703125 3.765625 -3.859375 C 3.148438 -4.003906 2.625 -4.179688 2.1875 -4.390625 C 1.75 -4.597656 1.410156 -4.875 1.171875 -5.21875 C 0.941406 -5.570312 0.828125 -6.039062 0.828125 -6.625 C 0.828125 -7.175781 0.96875 -7.664062 1.25 -8.09375 C 1.539062 -8.53125 1.9375 -8.867188 2.4375 -9.109375 C 2.9375 -9.359375 3.515625 -9.484375 4.171875 -9.484375 C 5.046875 -9.484375 5.757812 -9.253906 6.3125 -8.796875 C 6.863281 -8.335938 7.1875 -7.710938 7.28125 -6.921875 L 5.78125 -6.671875 C 5.59375 -7.578125 5.03125 -8.03125 4.09375 -8.03125 C 3.632812 -8.03125 3.265625 -7.910156 2.984375 -7.671875 C 2.703125 -7.441406 2.5625 -7.132812 2.5625 -6.75 C 2.5625 -6.363281 2.695312 -6.066406 2.96875 -5.859375 C 3.25 -5.648438 3.726562 -5.46875 4.40625 -5.3125 C 5.019531 -5.164062 5.546875 -5 5.984375 -4.8125 C 6.421875 -4.625 6.757812 -4.363281 7 -4.03125 C 7.238281 -3.695312 7.359375 -3.238281 7.359375 -2.65625 C 7.359375 -2.113281 7.210938 -1.632812 6.921875 -1.21875 C 6.628906 -0.800781 6.21875 -0.472656 5.6875 -0.234375 C 5.164062 0.00390625 4.5625 0.125 3.875 0.125 Z M 3.875 0.125 "/></g></g></g><g fill="#000000" fill-opacity="1"><g transform="translate(141.087515, 175.97921)"><g><path d="M 0.96875 0 L 0.96875 -9.359375 L 2.671875 -9.359375 L 2.671875 -5.484375 L 7.09375 -5.484375 L 7.09375 -9.359375 L 8.828125 -9.359375 L 8.828125 0 L 7.09375 0 L 7.09375 -3.984375 L 2.671875 -3.984375 L 2.671875 0 Z M 0.96875 0 "/></g></g></g><g fill="#000000" fill-opacity="1"><g transform="translate(160.872699, 175.97921)"><g><path d="M -0.125 0 L 3.859375 -9.359375 L 5.3125 -9.359375 L 9.140625 0 L 7.40625 0 L 6.5625 -2.140625 L 2.46875 -2.140625 L 1.609375 0 Z M 3.0625 -3.5625 L 6 -3.5625 L 4.5625 -7.25 Z M 3.0625 -3.5625 "/></g></g></g><g fill="#000000" fill-opacity="1"><g transform="translate(179.947341, 175.97921)"><g><path d="M 8.34375 -1.640625 L 8.75 -0.296875 C 8.570312 -0.171875 8.351562 -0.0703125 8.09375 0 C 7.84375 0.0820312 7.578125 0.125 7.296875 0.125 C 6.316406 0.125 5.546875 -0.3125 4.984375 -1.1875 L 3.625 -3.265625 C 3.476562 -3.484375 3.332031 -3.632812 3.1875 -3.71875 C 3.039062 -3.8125 2.878906 -3.859375 2.703125 -3.859375 L 2.640625 -3.859375 L 2.640625 0 L 0.96875 0 L 0.96875 -9.359375 L 3.875 -9.359375 C 5.0625 -9.359375 5.957031 -9.109375 6.5625 -8.609375 C 7.175781 -8.117188 7.484375 -7.445312 7.484375 -6.59375 C 7.484375 -6.070312 7.367188 -5.625 7.140625 -5.25 C 6.910156 -4.875 6.597656 -4.578125 6.203125 -4.359375 C 5.804688 -4.140625 5.359375 -4 4.859375 -3.9375 C 5.117188 -3.800781 5.359375 -3.566406 5.578125 -3.234375 L 6.328125 -2.140625 C 6.515625 -1.859375 6.691406 -1.660156 6.859375 -1.546875 C 7.035156 -1.441406 7.253906 -1.390625 7.515625 -1.390625 C 7.828125 -1.390625 8.101562 -1.472656 8.34375 -1.640625 Z M 3.75 -7.953125 L 2.640625 -7.953125 L 2.640625 -5.203125 L 3.671875 -5.203125 C 4.390625 -5.203125 4.921875 -5.3125 5.265625 -5.53125 C 5.609375 -5.75 5.78125 -6.101562 5.78125 -6.59375 C 5.78125 -7.5 5.101562 -7.953125 3.75 -7.953125 Z M 3.75 -7.953125 "/></g></g></g><g fill="#000000" fill-opacity="1"><g transform="translate(198.219363, 175.97921)"><g><path d="M 0.90625 0 L 1.265625 -9.359375 L 2.75 -9.359375 L 6.171875 -2.140625 L 9.59375 -9.359375 L 11.078125 -9.359375 L 11.375 0 L 9.71875 0 L 9.53125 -5.828125 L 6.75 0 L 5.46875 0 L 2.734375 -5.78125 L 2.484375 0 Z M 0.90625 0 "/></g></g></g><g fill="#000000" fill-opacity="1"><g transform="translate(220.530887, 175.97921)"><g><path d="M -0.125 0 L 3.859375 -9.359375 L 5.3125 -9.359375 L 9.140625 0 L 7.40625 0 L 6.5625 -2.140625 L 2.46875 -2.140625 L 1.609375 0 Z M 3.0625 -3.5625 L 6 -3.5625 L 4.5625 -7.25 Z M 3.0625 -3.5625 "/></g></g></g><g fill="#000000" fill-opacity="1"><g transform="translate(239.605543, 175.97921)"><g/></g></g><g fill="#000000" fill-opacity="1"><g transform="translate(252.824871, 175.97921)"><g><path d="M 0.96875 0 L 0.96875 -9.359375 L 4.0625 -9.359375 C 5.25 -9.359375 6.160156 -9.140625 6.796875 -8.703125 C 7.441406 -8.265625 7.765625 -7.628906 7.765625 -6.796875 C 7.765625 -6.347656 7.648438 -5.941406 7.421875 -5.578125 C 7.203125 -5.222656 6.894531 -4.941406 6.5 -4.734375 C 6.925781 -4.566406 7.265625 -4.300781 7.515625 -3.9375 C 7.773438 -3.570312 7.90625 -3.148438 7.90625 -2.671875 C 7.90625 -1.859375 7.597656 -1.207031 6.984375 -0.71875 C 6.378906 -0.238281 5.550781 0 4.5 0 Z M 4.09375 -7.953125 L 2.640625 -7.953125 L 2.640625 -5.40625 L 4.0625 -5.40625 C 4.738281 -5.40625 5.238281 -5.507812 5.5625 -5.71875 C 5.882812 -5.925781 6.046875 -6.257812 6.046875 -6.71875 C 6.046875 -7.132812 5.890625 -7.441406 5.578125 -7.640625 C 5.265625 -7.847656 4.769531 -7.953125 4.09375 -7.953125 Z M 2.640625 -1.390625 L 4.46875 -1.390625 C 5 -1.390625 5.421875 -1.492188 5.734375 -1.703125 C 6.046875 -1.921875 6.203125 -2.257812 6.203125 -2.71875 C 6.203125 -3.5625 5.609375 -3.984375 4.421875 -3.984375 L 2.640625 -3.984375 Z M 2.640625 -1.390625 "/></g></g></g><g fill="#000000" fill-opacity="1"><g transform="translate(271.175827, 175.97921)"><g><path d="M 0.96875 0 L 0.96875 -9.359375 L 2.671875 -9.359375 L 2.671875 -5.484375 L 7.09375 -5.484375 L 7.09375 -9.359375 L 8.828125 -9.359375 L 8.828125 0 L 7.09375 0 L 7.09375 -3.984375 L 2.671875 -3.984375 L 2.671875 0 Z M 0.96875 0 "/></g></g></g><g fill="#000000" fill-opacity="1"><g transform="translate(290.961004, 175.97921)"><g><path d="M 7.171875 -9.359375 L 8.875 -9.359375 L 8.890625 -4.375 C 8.898438 -3.445312 8.75 -2.644531 8.4375 -1.96875 C 8.125 -1.300781 7.671875 -0.785156 7.078125 -0.421875 C 6.484375 -0.0546875 5.769531 0.125 4.9375 0.125 C 3.601562 0.125 2.597656 -0.207031 1.921875 -0.875 C 1.253906 -1.550781 0.921875 -2.582031 0.921875 -3.96875 L 0.921875 -9.359375 L 2.640625 -9.359375 L 2.640625 -4.09375 C 2.640625 -3.15625 2.828125 -2.472656 3.203125 -2.046875 C 3.585938 -1.628906 4.15625 -1.421875 4.90625 -1.421875 C 5.675781 -1.421875 6.25 -1.664062 6.625 -2.15625 C 7.007812 -2.644531 7.195312 -3.410156 7.1875 -4.453125 Z M 7.171875 -9.359375 "/></g></g></g><g fill="#000000" fill-opacity="1"><g transform="translate(310.785663, 175.97921)"><g><path d="M 3.875 0.125 C 2.769531 0.125 1.910156 -0.117188 1.296875 -0.609375 C 0.679688 -1.109375 0.332031 -1.832031 0.25 -2.78125 L 1.859375 -3.015625 C 2.015625 -1.890625 2.710938 -1.328125 3.953125 -1.328125 C 4.484375 -1.328125 4.898438 -1.429688 5.203125 -1.640625 C 5.503906 -1.859375 5.65625 -2.164062 5.65625 -2.5625 C 5.65625 -2.90625 5.503906 -3.164062 5.203125 -3.34375 C 4.898438 -3.53125 4.421875 -3.703125 3.765625 -3.859375 C 3.148438 -4.003906 2.625 -4.179688 2.1875 -4.390625 C 1.75 -4.597656 1.410156 -4.875 1.171875 -5.21875 C 0.941406 -5.570312 0.828125 -6.039062 0.828125 -6.625 C 0.828125 -7.175781 0.96875 -7.664062 1.25 -8.09375 C 1.539062 -8.53125 1.9375 -8.867188 2.4375 -9.109375 C 2.9375 -9.359375 3.515625 -9.484375 4.171875 -9.484375 C 5.046875 -9.484375 5.757812 -9.253906 6.3125 -8.796875 C 6.863281 -8.335938 7.1875 -7.710938 7.28125 -6.921875 L 5.78125 -6.671875 C 5.59375 -7.578125 5.03125 -8.03125 4.09375 -8.03125 C 3.632812 -8.03125 3.265625 -7.910156 2.984375 -7.671875 C 2.703125 -7.441406 2.5625 -7.132812 2.5625 -6.75 C 2.5625 -6.363281 2.695312 -6.066406 2.96875 -5.859375 C 3.25 -5.648438 3.726562 -5.46875 4.40625 -5.3125 C 5.019531 -5.164062 5.546875 -5 5.984375 -4.8125 C 6.421875 -4.625 6.757812 -4.363281 7 -4.03125 C 7.238281 -3.695312 7.359375 -3.238281 7.359375 -2.65625 C 7.359375 -2.113281 7.210938 -1.632812 6.921875 -1.21875 C 6.628906 -0.800781 6.21875 -0.472656 5.6875 -0.234375 C 5.164062 0.00390625 4.5625 0.125 3.875 0.125 Z M 3.875 0.125 "/></g></g></g><g fill="#000000" fill-opacity="1"><g transform="translate(328.518182, 175.97921)"><g><path d="M -0.125 0 L 3.859375 -9.359375 L 5.3125 -9.359375 L 9.140625 0 L 7.40625 0 L 6.5625 -2.140625 L 2.46875 -2.140625 L 1.609375 0 Z M 3.0625 -3.5625 L 6 -3.5625 L 4.5625 -7.25 Z M 3.0625 -3.5625 "/></g></g></g><g fill="#000000" fill-opacity="1"><g transform="translate(347.592839, 175.97921)"><g><path d="M 0.96875 0 L 0.96875 -9.359375 L 2.671875 -9.359375 L 2.671875 -1.5 L 6.84375 -1.5 L 6.71875 0 Z M 0.96875 0 "/></g></g></g></svg>